#N canvas 575 326 710 517 12;
#X obj 221 27 adc~;
#X obj 159 487 dac~;
#X obj 270 72 delwrite~ delay 1000;
#X obj 216 235 delread~ delay 200;
#X obj 362 234 delread~ delay 205;
#X obj 211 288 *~ 0.6;
#X obj 349 285 *~ 0.6;
#X obj 281 269 *~ 0.4;
#X obj 63 61 bng 100 250 50 0 start start_rcv empty 17 7 0 10 -262144
-1 -1;
#X obj 462 28 sigmund~;
#X floatatom 462 52 5 0 0 0 - - -;
#X obj 462 92 moses 0;
#X obj 504 129 mtof;
#X obj 518 234 osc~;
#X msg 505 163 \$1 50;
#X obj 510 203 line~;
#X obj 518 258 *~ 0.4;
#X obj 507 297 *~;
#X floatatom 533 56 5 0 0 0 - - -;
#X obj 533 103 / 50;
#X obj 590 135 clip 0 1;
#X msg 593 219 \$1 50;
#X obj 598 259 line~;
#X obj 533 79 - 30;
#X connect 0 0 1 0;
#X connect 0 0 2 0;
#X connect 0 0 9 0;
#X connect 0 0 1 1;
#X connect 3 0 5 0;
#X connect 3 0 7 0;
#X connect 4 0 6 0;
#X connect 5 0 1 0;
#X connect 6 0 1 1;
#X connect 7 0 2 0;
#X connect 9 0 10 0;
#X connect 9 1 18 0;
#X connect 10 0 11 0;
#X connect 11 1 12 0;
#X connect 12 0 14 0;
#X connect 13 0 16 0;
#X connect 14 0 15 0;
#X connect 15 0 13 0;
#X connect 16 0 17 0;
#X connect 17 0 1 0;
#X connect 17 0 1 1;
#X connect 17 0 2 0;
#X connect 18 0 23 0;
#X connect 19 0 20 0;
#X connect 20 0 21 0;
#X connect 21 0 22 0;
#X connect 22 0 17 1;
#X connect 23 0 19 0;
